<svg width="126" height="175" viewBox="0 0 126 175" fill="none" xmlns="http://www.w3.org/2000/svg">
<path opacity="0.1" fill-rule="evenodd" clip-rule="evenodd" d="M32.8974 53.6157L40.7552 82.9249L70.0773 90.7778L100.307 60.5621C101.505 65.6376 101.889 70.8711 101.444 76.0669C100.829 83.2882 98.5892 90.2772 94.8917 96.5116C92.5053 100.563 89.4929 104.101 86.1682 107.41C75.2714 118.256 64.3944 129.123 53.5371 140.01C53.4177 140.15 53.3111 140.301 53.2187 140.46C51.2924 138.528 49.4642 136.694 47.6008 134.825C48.2134 134.218 20.2825 107.49 19.0245 106.301C17.9236 105.25 16.8843 104.137 15.9117 102.967C8.20701 93.7913 4.18451 82.0837 4.62382 70.1128C4.94951 61.5157 7.37829 53.5552 11.9101 46.2312C15.3396 40.7231 19.8388 35.9579 25.1419 32.2171C30.445 28.4763 36.4444 25.8358 42.7856 24.4517C46.7996 23.5683 50.9117 23.2115 55.0179 23.3903C57.4626 23.4947 59.8968 23.7734 62.3018 24.2241L32.8974 53.6157ZM53.6655 175C53.8095 174.793 53.9415 174.526 54.1413 174.327C70.3872 158.082 86.64 141.844 102.9 125.614C107.869 120.669 112.37 115.382 115.936 109.329C121.461 100.013 124.809 89.5703 125.728 78.7801C126.144 73.9798 126.082 69.1501 125.543 64.3621C124.87 58.1691 123.382 52.092 121.118 46.2881C116.459 34.3824 109.197 24.3427 99.2649 16.2878C86.7651 6.15137 72.4273 0.773344 56.3534 0.0666014C50.2178 -0.199758 44.0736 0.333571 38.0758 1.65314C26.6112 4.16063 16.3544 9.151 7.30564 16.6242C1.2564 21.6019 -3.93413 27.5385 -8.05884 34.1972C-14.85 45.1275 -18.4794 57.0227 -18.9472 69.8829C-19.1991 76.4196 -18.5493 82.96 -17.016 89.3195C-14.3596 100.373 -9.38058 110.258 -2.07892 118.975C-0.62649 120.724 0.926297 122.388 2.57159 123.957C2.48926 123.9 10.1873 115.464 10.3471 115.235C7.31898 112.163 4.5984 108.842 2.28949 105.196C-4.54159 94.4071 -7.71297 82.6313 -7.22463 69.8684C-7.04446 65.2293 -6.31825 60.6275 -5.06101 56.1583C-2.24843 46.1537 2.78106 37.409 10.0734 30.0112C20.2341 19.7029 32.5188 13.7174 46.9276 12.0546C51.5096 11.5414 56.136 11.567 60.7121 12.1309C66.3713 12.7937 71.9068 14.2616 77.1505 16.4899C85.4527 20.0212 92.653 25.1245 98.6656 31.8543C107.817 42.0948 112.964 54.0639 114.109 67.7615C114.618 73.8831 114.167 80.0468 112.771 86.0291C110.175 97.2232 104.866 106.964 96.7599 115.107C80.5782 131.362 64.3613 147.582 48.1093 163.767C47.1516 164.724 46.1854 165.672 45.2701 166.578C48.056 169.373 50.7863 172.113 53.6655 175Z" fill="white"/>
</svg>
