<svg width="294" height="350" viewBox="0 0 294 350" fill="none" xmlns="http://www.w3.org/2000/svg">
<path opacity="0.1" fill-rule="evenodd" clip-rule="evenodd" d="M43.5861 94.6092L64.7209 173.66L143.587 194.841L224.896 113.345C228.117 127.034 229.15 141.149 227.954 155.163C226.299 174.64 220.274 193.491 210.329 210.306C203.911 221.234 195.809 230.774 186.866 239.701C157.558 268.953 128.302 298.262 99.0999 327.628C98.7786 328.006 98.4919 328.412 98.2434 328.842C93.0623 323.629 88.145 318.684 83.1332 313.641C84.781 312.006 9.65645 239.917 6.27293 236.708C3.31187 233.875 0.516411 230.872 -2.09956 227.716C-22.8225 202.968 -33.6417 171.391 -32.4601 139.104C-31.5841 115.917 -25.0515 94.446 -12.8624 74.6921C-3.63824 59.836 8.463 46.9836 22.7264 36.8941C36.9899 26.8047 53.1262 19.6829 70.182 15.9496C80.9783 13.567 92.0383 12.6047 103.083 13.0871C109.658 13.3687 116.205 14.1202 122.674 15.336L43.5861 94.6092ZM99.445 422C99.8326 421.442 100.188 420.72 100.725 420.185C144.421 376.369 188.135 332.573 231.868 288.799C245.233 275.462 257.34 261.201 266.931 244.875C281.792 219.75 290.796 191.584 293.27 162.481C294.388 149.534 294.222 136.508 292.771 123.594C290.96 106.89 286.957 90.4997 280.869 74.8455C268.338 42.7341 248.805 15.6559 222.092 -6.06945C188.472 -33.4089 149.908 -47.9142 106.675 -49.8204C90.1719 -50.5388 73.6462 -49.1003 57.5142 -45.5412C26.6783 -38.7782 -0.908783 -25.3184 -25.2469 -5.16204C-41.5173 8.26338 -55.478 24.2753 -66.5721 42.2348C-84.8379 71.7154 -94.5998 103.798 -95.8579 138.484C-96.5355 156.115 -94.7877 173.755 -90.6637 190.908C-83.519 220.721 -70.1271 247.383 -50.4881 270.892C-46.5816 275.61 -42.4051 280.097 -37.9798 284.33C-38.2013 284.177 -17.4963 261.423 -17.0665 260.806C-25.211 252.519 -32.5284 243.563 -38.7386 233.728C-57.1119 204.629 -65.6418 172.868 -64.3283 138.445C-63.8437 125.933 -61.8905 113.521 -58.5089 101.467C-50.944 74.4832 -37.4164 50.8975 -17.8025 30.9445C9.52621 3.14162 42.5679 -13.0022 81.3226 -17.487C93.6466 -18.8711 106.09 -18.8021 118.398 -17.2813C133.619 -15.4934 148.508 -11.5345 162.612 -5.52439C184.942 4.00002 204.308 17.7644 220.48 35.9156C245.093 63.5358 258.938 95.818 262.017 132.762C263.387 149.273 262.173 165.898 258.418 182.033C251.436 212.225 237.157 238.497 215.354 260.461C171.831 304.303 128.213 348.05 84.5009 391.703C81.925 394.285 79.3263 396.841 76.8644 399.286C84.3577 406.822 91.701 414.212 99.445 422Z" fill="white"/>
</svg>
