<svg width="104" height="104" viewBox="0 0 104 104" fill="white" xmlns="http://www.w3.org/2000/svg">
<circle cx="52" cy="52" r="51.5" fill="white" stroke="#656565"/>
<path d="M79.0657 81.8346C79.131 81.3398 79.0384 81.5154 79.4423 81.1922C82.8601 78.4558 85.0202 72.9269 86.3134 66.6673C88.1002 58.0178 88.2436 47.9444 87.7639 42.0001C87.6838 41.008 87.3867 39.5945 87.5262 38.6271C87.6407 37.8335 87.7567 37.0292 86.9144 35.5536C85.2464 32.6312 81.5152 28.2344 78.8023 26.2327C75.7803 24.0028 73.8758 25.1312 71.0406 26.9866C68.4789 28.663 66.1683 30.1214 64.038 31.3826C63.2206 31.8665 63.194 31.8907 62.2367 31.9929C60.4345 32.1853 58.7752 32.1112 57.3166 32.046C53.0708 31.8562 50.6943 31.9456 50.4297 36.7864C50.3856 37.5946 50.518 37.4278 49.6741 37.6111C49.2813 37.6964 48.8883 37.7738 48.4942 37.8433C42.0149 38.9857 35.1679 38.0498 23.8889 36.21C18.8195 35.3831 15.9804 38.9995 15.2235 43.6527C14.1053 50.5266 17.2451 58.8258 23.2541 62.6273L47.6064 78.0332C54.8142 82.593 67.7101 88.2073 75.9561 85.1078C77.5963 84.4913 78.8501 83.4703 79.0657 81.8346H79.0657ZM59.7169 77.1563C59.9319 77.2712 60.1063 76.9438 59.8913 76.8289C57.7863 75.7017 55.9338 73.9343 55.8027 71.4111C55.7903 71.167 55.4197 71.1859 55.4321 71.43C55.5704 74.0908 57.4915 75.9646 59.7169 77.1563L59.7169 77.1563ZM54.6527 46.2192C54.6527 46.4642 55.0247 46.4642 55.0247 46.2192C55.0247 43.4094 55.3848 41.8974 58.0208 40.536L61.8468 38.56C61.9379 38.513 61.9737 38.4009 61.9268 38.3097C61.8798 38.2185 61.7679 38.1827 61.6768 38.2297L57.8508 40.2057C55.0837 41.6348 54.6527 43.2664 54.6527 46.2192ZM44.837 73.1664C45.0432 73.2964 45.2408 72.9821 45.0346 72.8521L38.513 68.7493C38.3068 68.6193 38.1092 68.9336 38.3154 69.0636L44.837 73.1664ZM60.6959 33.2767C57.4245 35.0371 54.5514 36.2753 51.7471 37.0863C51.0703 37.2821 51.1327 37.3743 51.1868 36.6564C51.4981 32.5263 53.7115 32.6284 57.2847 32.7881C58.3045 32.8337 59.4205 32.8835 60.6191 32.8464C61.7494 32.8113 61.747 32.7112 60.6959 33.2767H60.6959ZM51.1418 38.0251C56.8703 36.5267 62.7238 33.3184 71.4475 27.6094C73.996 25.9415 75.638 24.8212 78.3635 26.8322C80.9886 28.7692 84.6552 33.0954 86.2693 35.9232C86.7853 36.8273 86.8785 37.4315 86.8542 37.9488C86.8103 38.8833 86.8074 38.5364 86.4576 37.9388C86.1099 37.345 85.7115 36.7763 85.2838 36.2301C83.6001 34.0797 81.646 31.9312 79.5931 30.1289C76.757 27.6389 75.3031 28.4394 72.6095 29.9226C67.4289 32.7751 61.9944 35.4348 56.7284 38.1544C53.0932 40.0318 52.3877 42.3586 52.4731 46.2669L53.01 70.8273C53.2124 80.0843 66.0961 83.8028 73.7294 83.2186C75.1875 83.1071 76.6216 82.8016 77.8919 82.1813C78.3105 81.9768 78.3899 81.8583 78.1373 82.4396C77.7385 83.3574 76.8268 83.9878 75.6975 84.4123C67.7156 87.4125 54.9897 81.8254 48.0016 77.4046L23.6493 61.9987C17.892 58.3565 14.8857 50.3506 15.9558 43.772C16.6449 39.536 19.1192 36.1848 23.7698 36.9434C35.131 38.7966 42.0331 39.7384 48.622 38.5767C49.4694 38.4272 50.3094 38.2428 51.1418 38.0251V38.0251ZM65.3916 61.4539C65.4518 61.3469 65.414 61.2112 65.3071 61.151C65.2002 61.0907 65.0647 61.1286 65.0045 61.2357L64.0575 62.9142C63.9973 63.0213 64.0352 63.1569 64.1421 63.2172C64.249 63.2774 64.3845 63.2395 64.4446 63.1325L65.3916 61.4539ZM69.3165 54.4971C69.3767 54.39 69.3388 54.2544 69.2319 54.1941C69.125 54.1339 68.9896 54.1718 68.9294 54.2788L67.9824 55.9574C67.9222 56.0645 67.9601 56.2001 68.067 56.2604C68.1739 56.3206 68.3094 56.2827 68.3695 56.1757L69.3165 54.4971ZM64.2249 60.4851C64.3299 60.4205 64.3627 60.2829 64.2982 60.1778C64.2337 60.0727 64.0963 60.0398 63.9913 60.1044L62.351 61.1152C62.246 61.1798 62.2133 61.3174 62.2778 61.4225C62.3423 61.5276 62.4797 61.5604 62.5847 61.4958L64.2249 60.4851ZM71.023 56.2962C71.128 56.2316 71.1608 56.094 71.0963 55.9888C71.0318 55.8837 70.8944 55.8509 70.7894 55.9155L69.1491 56.9262C69.0441 56.9908 69.0114 57.1284 69.0759 57.2335C69.1404 57.3386 69.2778 57.3715 69.3828 57.3069L71.023 56.2962ZM63.717 59.0416C63.8397 59.0372 63.9358 58.934 63.9315 58.8111C63.9271 58.6881 63.8241 58.592 63.7013 58.5963L61.8073 58.6684C61.6845 58.6727 61.5885 58.7759 61.5928 58.8988C61.5971 59.0218 61.7002 59.118 61.823 59.1136L63.717 59.0416ZM71.5668 58.7429C71.6895 58.7386 71.7856 58.6354 71.7812 58.5125C71.7769 58.3895 71.6738 58.2934 71.5511 58.2977L69.6571 58.3697C69.5343 58.3741 69.4382 58.4773 69.4426 58.6002C69.4469 58.7232 69.55 58.8193 69.6727 58.815L71.5668 58.7429ZM64.0026 57.5092C64.1109 57.5675 64.246 57.5269 64.3042 57.4184C64.3625 57.3099 64.3219 57.1747 64.2136 57.1163L62.5733 56.2304C62.465 56.1721 62.3299 56.2127 62.2717 56.3212C62.2134 56.4297 62.254 56.5649 62.3623 56.6233L64.0026 57.5092ZM70.8007 61.1809C70.909 61.2392 71.0441 61.1986 71.1023 61.0901C71.1606 60.9816 71.12 60.8464 71.0117 60.788L69.3714 59.9021C69.2631 59.8438 69.128 59.8844 69.0698 59.9929C69.0115 60.1014 69.0521 60.2366 69.1604 60.295L70.8007 61.1809ZM65.0062 56.2933C65.0688 56.3994 65.2055 56.4346 65.3114 56.3719C65.4173 56.3092 65.4525 56.1724 65.3899 56.0663L64.4428 54.4598C64.3803 54.3537 64.2436 54.3185 64.1377 54.3812C64.0318 54.4439 63.9966 54.5807 64.0592 54.6868L65.0062 56.2933ZM68.9311 62.9515C68.9937 63.0576 69.1303 63.0928 69.2363 63.0301C69.3422 62.9674 69.3773 62.8306 69.3147 62.7245L68.3677 61.118C68.3051 61.0119 68.1685 60.9767 68.0626 61.0394C67.9566 61.1021 67.9215 61.2389 67.9841 61.345L68.9311 62.9515ZM66.4638 55.7237C66.4638 55.8471 66.5637 55.9472 66.687 55.9472C66.8103 55.9472 66.9102 55.8471 66.9102 55.7237V53.827C66.9102 53.7036 66.8103 53.6035 66.687 53.6035C66.5637 53.6035 66.4638 53.7036 66.4638 53.827V55.7237ZM66.4638 63.5843C66.4638 63.7077 66.5637 63.8078 66.687 63.8078C66.8103 63.8078 66.9102 63.7077 66.9102 63.5843V61.6877C66.9102 61.5642 66.8103 61.4642 66.687 61.4642C66.5637 61.4642 66.4638 61.5642 66.4638 61.6877V63.5843ZM66.6739 51.6152C62.771 51.7637 59.6049 55.048 59.6049 58.9609C59.6049 62.8729 62.7967 65.9444 66.7001 65.7961C70.7009 65.6439 73.9148 62.1903 73.7627 58.1782C73.6182 54.3698 70.4754 51.4708 66.6739 51.6152H66.6739ZM66.7001 52.3574C70.0897 52.2288 72.8927 54.8073 73.0216 58.2045C73.1581 61.8048 70.2645 64.9174 66.6739 65.054C63.1872 65.1862 60.3489 62.4527 60.3489 58.9609C60.3489 55.4479 63.1953 52.4907 66.7001 52.3573L66.7001 52.3574ZM66.6739 49.3461C61.5201 49.5421 57.3389 53.8803 57.3389 59.0471C57.3389 64.2091 61.5489 68.2611 66.7001 68.0653C71.983 67.8643 76.2276 63.3021 76.0271 58.0046C75.8364 52.9796 71.6896 49.1554 66.6739 49.3461H66.6739ZM66.7001 50.0882C71.3038 49.9133 75.111 53.4172 75.286 58.0308C75.4709 62.9168 71.5468 67.1378 66.6739 67.3232C61.9396 67.503 58.0829 63.7887 58.0829 59.0471C58.0829 54.2803 61.9444 50.2691 66.7001 50.0882V50.0882ZM32.8382 42.4505C30.1541 41.1643 27.1468 40.1813 24.6404 40.1814C20.8518 40.1815 19.0567 42.3915 19.0567 46.0808C19.0568 52.6317 21.891 55.9048 26.9208 59.7241C29.9481 62.0228 33.9973 64.4007 37.6619 65.4574C42.2998 66.7948 46.2987 64.9894 46.6746 60.006C47.2249 52.7127 38.7912 45.3033 32.8381 42.4505H32.8382ZM24.6404 40.9235C27.0254 40.9235 29.9205 41.8749 32.5185 43.1199C38.169 45.8276 46.4576 53.005 45.9336 59.9507C45.593 64.4654 42.0376 65.9447 37.8654 64.7415C34.2875 63.7098 30.3236 61.3773 27.3684 59.1333C22.5309 55.4601 19.7979 52.3846 19.7978 46.0808C19.7978 42.8088 21.2684 40.9235 24.6404 40.9235ZM79.5667 33.8487C79.452 33.5788 79.0422 33.7534 79.1569 34.0233C82.2526 41.2732 83.1869 49.4032 82.8452 56.892C82.4064 66.5096 79.8666 75.058 77.0989 79.3223C77.032 79.4255 77.0612 79.5635 77.1643 79.6305C77.2673 79.6975 77.4051 79.6682 77.472 79.565C80.2757 75.2454 82.8474 66.6091 83.2898 56.9113C83.6342 49.3634 82.6909 41.1655 79.5667 33.8487H79.5667ZM87.0237 42.0693C87.4996 47.9598 87.3579 57.9457 85.5867 66.5189C84.2662 72.9113 82.0466 78.5015 78.5138 80.958C77.1385 81.9143 75.4297 82.3422 73.6741 82.4766C66.4967 83.0259 53.9422 79.5554 53.7518 70.8474L53.2146 46.2769C53.1356 42.662 53.6829 40.5636 57.0684 38.8151C62.3399 36.0926 67.781 33.4301 72.9669 30.5745C75.3653 29.2539 76.6598 28.5412 79.1048 30.6877C81.1191 32.4561 83.0475 34.577 84.6996 36.687C85.2661 37.4106 85.7775 38.1735 86.1781 38.9816C86.7105 40.0552 86.929 40.8978 87.0237 42.0693V42.0693Z" fill="#0160C0"/>
</svg>
