<svg width="104" height="104" viewBox="0 0 104 104" fill="white" xmlns="http://www.w3.org/2000/svg">
<circle cx="52" cy="52" r="51.5" fill="white" stroke="#656565"/>
<path d="M67.2812 44.745C66.8357 43.9085 66.3509 43.4711 65.871 43.0108C65.3559 42.5168 64.8237 42.0063 64.2571 40.9004C63.6931 39.7996 62.4976 39.1104 61.3502 39.7915C59.6773 40.7844 59.984 43.3163 60.5173 44.9884C60.7043 45.575 60.8229 45.4621 60.2268 45.5707C59.6987 45.6669 59.1808 45.7841 58.6652 45.9132C57.9091 46.1023 58.0335 46.1454 58.5166 45.6844C58.6234 45.5825 58.7229 45.4783 58.8147 45.3719C59.116 45.0214 58.5799 44.5647 58.2787 44.9152C57.0418 46.3483 54.4643 47.0774 52.6503 47.3514C51.6684 47.5057 50.6144 47.5979 49.4488 47.5743C47.185 47.5285 47.1765 47.2258 45.4581 45.9571C44.1089 44.9611 43.0042 44.1455 41.9227 43.6494C40.4823 42.9885 38.5367 42.9332 37.6755 44.4772C37.0698 45.5631 37.4173 46.8281 38.1244 47.7766C38.3386 48.0639 38.4384 48.0117 38.0329 48.099C37.963 48.1141 37.8939 48.1298 37.8256 48.1462C37.4532 48.2361 37.584 48.2128 37.2559 48.0114C35.2679 46.7906 32.7946 47.8796 33.0262 50.1926C33.0754 50.6842 33.2194 50.5432 32.7627 50.8071C30.8873 51.8908 29.0248 52.9979 27.1894 54.1475C24.9914 55.5241 23.0656 53.4403 25.7172 51.836C28.0748 50.4097 32.3551 48.0828 34.2779 46.3227C34.4086 46.2031 34.6924 45.7991 34.8238 45.981C35.0921 46.3524 35.5145 46.0296 35.4393 45.7084C35.2606 44.9465 34.8025 44.0636 34.1301 43.626C33.8768 43.461 33.5505 43.671 33.5859 43.9624C33.6173 44.221 33.8315 44.1414 33.455 44.2097C32.8195 44.3248 32.1086 44.5576 31.4888 44.7464C30.3415 45.0958 29.2792 45.4677 28.1611 45.8671C25.3075 46.8866 21.3813 48.2374 18.6828 48.6817C16.0735 49.1114 15.4496 46.8143 17.9784 45.8132C22.4638 44.0375 27.0536 42.5972 31.4527 40.5926C31.7452 40.4593 31.9936 40.3287 32.1955 40.198C32.3791 40.0791 32.4347 40.109 32.4616 40.3454C32.4976 40.6628 33.1184 40.6988 33.1508 40.2656C33.211 39.4739 33.026 38.6495 32.4808 38.0486C32.2832 37.8312 31.7449 37.9564 31.8623 38.3885C31.8969 38.516 31.7818 38.518 31.5015 38.5208C31.3172 38.5226 31.1143 38.5298 30.8937 38.5494C28.5563 38.7565 22.7668 39.7686 16.7653 40.8216C12.6911 41.5365 12.9737 37.7928 15.8804 37.1539C20.2937 36.1837 24.7614 35.5257 29.1846 34.6658C30.1094 34.486 30.995 34.2871 31.7823 34.0536C32.0876 33.9631 32.0672 33.9975 32.1939 34.1727C32.3435 34.3797 32.6592 34.3758 32.7904 34.1503C33.1916 33.4621 33.0838 32.3547 32.7297 31.667C32.5735 31.3626 32.0871 31.4418 32.0791 31.715C32.0742 31.8815 32.0064 31.8825 31.6231 31.7688C31.3182 31.6783 30.9622 31.6061 30.559 31.5514C27.3995 31.1234 24.2266 30.4634 21.0764 30.0887C20.0428 29.9658 18.8921 29.2767 18.9882 28.1156C19.0955 26.8186 20.6382 26.5015 21.7097 26.5558C25.871 26.7667 30.1859 27.493 34.3554 27.9595C37.2055 28.2784 40.0464 28.4704 42.9143 28.2969C45.5085 28.14 47.452 27.4198 45.7898 24.4868C44.5576 22.3125 42.5239 21.372 41.5502 18.9667C41.2135 18.1348 40.8318 16.4481 41.807 15.8605C42.7677 15.2816 44.0153 16.4405 44.5633 17.1134C45.2401 17.9444 46.0747 18.7638 46.9748 19.5363C48.7591 21.0675 50.7022 22.1958 52.5163 23.6443C54.4348 25.1762 56.0827 26.8784 57.6776 28.9147C58.4523 29.9039 59.1119 30.8745 59.5159 31.7311C59.7121 32.1491 60.3504 31.852 60.1541 31.434C60.0618 31.2382 59.9574 31.0374 59.8424 30.8327C59.2102 29.7072 59.2108 30.013 60.2749 30.5448C60.7087 30.7616 61.1718 30.9476 61.6774 31.1028C64.0218 31.8224 67.249 31.8558 72.7217 31.211C73.4408 31.1263 73.2109 31.1109 72.9977 31.569C72.8956 31.7882 72.8127 32.0537 72.7562 32.3678C72.1518 35.7268 72.4468 40.796 73.2231 44.1362C73.2746 44.3576 73.3444 44.5477 73.3987 44.7204C73.5199 45.1063 73.5039 45.2362 72.8956 45.2098C71.2183 45.0581 69.5353 44.9669 67.855 45.061C67.4419 45.0841 67.418 45.0017 67.2812 44.745L67.2812 44.745ZM39.1936 48.853C39.2734 48.9154 39.3559 48.9773 39.4414 49.0385L46.4851 54.6221C45.0213 53.8122 43.7303 53.0036 42.5902 52.2217C40.9132 51.0718 39.5582 49.9763 38.4573 49.0191C38.1798 48.7778 38.0765 48.7973 38.5087 48.7205C38.5591 48.7115 38.6104 48.7028 38.6626 48.6942C39.017 48.636 38.9166 48.6361 39.1936 48.853ZM37.782 49.3649C38.9319 50.3753 40.3712 51.5526 42.1895 52.7995C44.1117 54.1176 46.4524 55.509 49.3126 56.8547C49.4592 56.9296 49.6433 56.8939 49.7498 56.7605C49.8711 56.6086 49.8457 56.3875 49.6931 56.2667L40.0985 48.6609C38.9969 47.7876 37.4238 46.3743 38.2917 44.8184C38.9616 43.6172 40.5484 43.7928 41.6271 44.2876C42.6459 44.7551 43.7228 45.5501 45.0381 46.5211C46.4737 47.581 47.9303 48.588 49.391 49.6114C52.1281 51.529 54.8354 53.4257 56.9209 54.5286C58.3012 55.2586 60.2049 55.8085 61.5767 54.765C61.9533 54.4785 62.2438 53.968 61.8234 54.8678C61.7813 54.9578 61.7364 55.0445 61.6884 55.128C61.4579 55.5292 62.0713 55.8786 62.3018 55.4774C63.7538 52.949 62.6949 48.5928 61.6951 46.0837C61.1061 44.6056 59.9598 41.4341 61.7122 40.394C62.4986 39.9272 63.2589 40.5007 63.6272 41.2196C64.246 42.4275 64.8233 42.9812 65.3819 43.517C66.0287 44.1374 66.6484 44.7317 67.285 46.4821C68.4577 49.7063 68.8616 51.393 70.5219 54.5782C72.2211 57.8378 72.2714 59.6517 72.3141 61.193C72.3705 63.2276 72.4145 64.8157 75.7394 68.2888C77.5204 70.1492 79.2221 71.667 81.319 73.5182C82.0819 74.1918 81.9913 73.8989 81.2385 74.2878C78.8755 75.5086 72.6752 81.013 71.0973 83.2515C70.8248 83.6226 70.8312 83.549 70.5063 83.1684C69.4863 81.9735 67.9408 80.2078 66.2345 78.5971C63.8435 76.34 62.1321 75.361 58.9815 74.4121C56.9462 73.7991 54.8655 73.3688 52.8196 72.7871C50.147 72.0272 47.6163 71.1203 45.0037 69.957C42.5855 68.8803 40.3286 67.5668 38.1417 66.0826C37.1017 65.3767 36.1107 64.633 35.3972 63.9399C34.6979 63.2606 34.4875 62.6447 34.5749 62.1767C34.6469 61.7905 34.9253 61.5059 35.2882 61.3698C36.0416 61.0872 36.5695 61.4624 37.1218 61.8726C39.2669 63.4656 41.8817 65.217 44.4015 66.0498C44.5861 66.1106 44.7853 66.0108 44.8463 65.827C44.9074 65.6431 44.8072 65.4448 44.6225 65.3841C42.1835 64.5779 39.6316 62.8619 37.5529 61.3188C35.7894 60.0096 33.9701 58.5492 32.4113 57.0181C30.3478 54.9914 32.0529 52.4218 34.7349 54.6143C36.335 55.9223 38.4122 57.4497 40.5187 58.7541C42.2301 59.8138 43.9666 60.7304 45.4945 61.2714C45.6784 61.3359 45.88 61.2399 45.9449 61.0568C45.9994 60.9027 45.9398 60.7362 45.8099 60.6488C45.6318 60.5185 45.1569 60.1734 44.6511 59.8058C41.4704 57.4947 36.7516 54.0659 34.4292 51.5413C32.6116 49.5654 34.6229 47.2282 36.8195 48.5603C37.2109 48.7977 37.4487 49.0719 37.7821 49.3649H37.782ZM47.4362 19.0054C46.5647 18.2575 45.7593 17.4673 45.1104 16.6705C44.3044 15.6808 42.7681 14.4592 41.4423 15.258C40.1117 16.0598 40.4088 18.026 40.8954 19.2281C41.9397 21.808 43.931 22.6332 45.1764 24.8307C46.5279 27.2155 44.9333 27.4707 42.8729 27.5954C40.0421 27.7666 37.2457 27.5755 34.4328 27.2608C30.2471 26.7925 25.9255 26.0661 21.7456 25.8543C20.2533 25.7787 18.4252 26.3471 18.2836 28.0578C18.1551 29.6094 19.5628 30.6174 20.9935 30.7875C24.1404 31.1619 27.309 31.8199 30.465 32.2475C31.0247 32.3234 31.4666 32.4329 31.7856 32.5613C32.5107 32.8531 32.4766 33.0468 31.7497 33.3236C31.0953 33.5728 30.135 33.797 29.0699 34.0019C24.6277 34.8567 20.1685 35.4929 15.7284 36.4689C11.9106 37.3081 11.9246 42.3857 16.8833 41.5156C22.8854 40.4623 28.6749 39.4501 30.9544 39.2482C32.4202 39.1183 32.5299 39.3301 31.1597 39.9544C26.7746 41.9526 22.1915 43.3904 17.7186 45.1612C14.3914 46.4784 15.3694 49.9392 18.796 49.375C21.5647 48.9191 25.5512 47.546 28.4321 46.5164C29.5286 46.1245 30.5667 45.7608 31.6932 45.4176C32.2752 45.2403 32.8826 45.0656 33.3783 44.9444C34.5102 44.6677 34.6397 45.0367 33.7999 45.8055C31.9197 47.5266 27.6639 49.8378 25.3524 51.2363C21.9016 53.3242 24.5563 56.6261 27.5651 54.7417C29.2957 53.6578 31.0518 52.6115 32.8189 51.5872C33.522 51.1797 33.2548 51.1996 33.6953 51.7624C35.4842 54.0473 40.048 57.308 42.4786 59.0909C41.9528 58.7988 41.4214 58.4851 40.8917 58.1571C38.8066 56.866 36.7573 55.3597 35.1824 54.0723C31.8035 51.3101 29.2143 54.8645 31.9167 57.5188C32.4173 58.0105 33.5613 59.0506 35.0403 60.253C35.5882 60.6985 35.5283 60.5289 35.0395 60.7122C34.445 60.9352 33.9985 61.4219 33.8813 62.0501C33.7547 62.7288 34.0121 63.5757 34.9054 64.4434C35.6527 65.1693 36.6755 65.9379 37.7438 66.663C39.9643 68.1701 42.261 69.5048 44.7163 70.598C47.3663 71.778 49.9304 72.6965 52.6407 73.4663C54.6786 74.0451 56.7494 74.4755 58.7771 75.0861C61.8297 76.0055 63.4312 76.9188 65.7483 79.106C67.7614 81.0064 69.5596 83.1448 70.479 84.2327C70.9232 84.7779 71.6136 85.3048 72.8067 84.79C74.1643 84.2042 76.1209 82.9555 77.9389 81.4514C79.5197 80.1436 81.5871 78.2206 82.5222 76.3908C83.4136 74.6467 82.9916 74.0572 81.804 73.0087C79.7158 71.1652 78.0227 69.6557 76.2506 67.8046C73.1116 64.5257 73.0708 63.0563 73.0187 61.1737C72.9739 59.5577 72.9212 57.6557 71.1492 54.2563C69.5446 51.1783 69.0643 49.5555 67.9882 46.3495C67.8044 45.8017 67.766 45.7728 68.3744 45.755C69.8618 45.7114 71.3488 45.7744 72.8321 45.9086C74.4065 46.0525 75.4265 46.1132 75.8055 44.2601C76.5087 40.8224 76.12 36.2844 75.6168 32.8252C75.5226 32.1776 75.3427 31.4657 74.8521 30.9972C74.4019 30.5671 73.7512 30.3799 72.7818 30.4954C67.3245 31.1454 64.1463 31.1257 61.8847 30.4315C60.5496 30.0218 59.3017 29.2932 58.3053 28.2293C56.5167 26.3198 54.8424 24.617 52.9013 23.0626C51.1132 21.6309 49.1923 20.5125 47.4362 19.0054L47.4362 19.0054ZM71.6747 83.6559C73.1913 81.5045 79.295 76.0834 81.5618 74.9123C82.3068 74.5564 82.3693 74.9194 82.0646 75.6954C81.3235 77.5422 79.0141 79.6501 77.4885 80.9122C75.6454 82.437 73.7269 83.7441 72.5842 84.2673C72.0691 84.5032 71.0854 84.4919 71.6747 83.6559V83.6559ZM61.4377 53.9405C61.3572 54.0302 61.2705 54.1114 61.1778 54.1841C60.0524 55.0665 58.372 54.4989 57.2525 53.9068C55.1989 52.8209 52.5128 50.939 49.7972 49.0364C49.6306 48.9197 49.464 48.8029 49.2982 48.6869C48.4634 48.1023 48.5544 48.2469 49.4958 48.2608C53.7457 48.3234 56.5306 46.9446 60.4156 46.2507C61.0636 46.135 60.9417 46.0753 61.1745 46.6875C61.8732 48.5246 62.9541 52.2504 61.4376 53.9405L61.4377 53.9405ZM53.4142 70.8161C53.1934 70.7446 53.0843 71.0789 53.3051 71.1503C54.8749 71.6622 56.4595 71.9909 58.0467 72.4174C58.2712 72.4771 58.3623 72.1374 58.1379 72.0777C56.5564 71.6527 54.9787 71.3262 53.4142 70.8161V70.8161ZM74.9177 32.9242C75.4087 36.2994 75.8009 40.7654 75.1148 44.1198C74.8651 45.3403 74.2271 45.3392 73.9111 43.9794C73.156 40.7304 72.8619 35.7581 73.4497 32.4916C73.6333 31.4712 74.1954 31.0549 74.611 31.8457C74.7856 32.178 74.8643 32.5568 74.9177 32.9242L74.9177 32.9242Z" fill="#0160C0"/>
</svg>
